<?xml version="1.0" encoding="utf-8"?>
<!-- Generator: Adobe Illustrator 16.0.0, SVG Export Plug-In . SVG Version: 6.00 Build 0)  -->
<!DOCTYPE svg PUBLIC "-//W3C//DTD SVG 1.1//EN" "http://www.w3.org/Graphics/SVG/1.1/DTD/svg11.dtd">
<svg version="1.1" xmlns="http://www.w3.org/2000/svg" xmlns:xlink="http://www.w3.org/1999/xlink" x="0px" y="0px" viewBox="0 0 1920 1080" enable-background="new 0 0 1920 1080" xml:space="preserve">
<g id="Layer_2" display="none">
	<g display="inline">
		<g>
			<rect x="423.139" y="1023.848" fill="#676767" width="1073.723" height="55.601"/>
			<rect x="673.836" y="5.003" fill="#676767" width="570.531" height="49.424"/>
			<rect x="724.537" y="88.451" fill="#676767" width="469.331" height="32.592"/>
			<rect x="724.57" y="121.043" fill="#676767" width="33.074" height="706.985"/>
			<rect x="1160.795" y="121.043" fill="#676767" width="33.073" height="706.985"/>
			<rect x="724.57" y="222.041" fill="#676767" width="469.218" height="50.499"/>
			<rect x="724.57" y="374.612" fill="#676767" width="469.218" height="50.499"/>
			<rect x="724.57" y="509.992" fill="#676767" width="469.218" height="50.499"/>
			<rect x="724.57" y="664.713" fill="#676767" width="469.218" height="50.498"/>
			<rect x="1077.914" y="828.028" fill="#676767" width="115.887" height="195.819"/>
			<rect x="724.57" y="828.028" fill="#676767" width="102.554" height="195.819"/>
			<rect x="724.57" y="822" fill="#676767" width="469.218" height="39.604"/>
			<rect x="868.653" y="89.775" fill="#676767" width="33.577" height="738.257"/>
			<rect x="1019.075" y="89.775" fill="#676767" width="33.576" height="738.257"/>
			<rect x="874.398" y="894.644" fill="#676767" width="68.385" height="129.204"/>
			<rect x="976.562" y="894.644" fill="#676767" width="67.153" height="129.204"/>
			<rect x="796.722" y="156.141" fill="#676767" width="33.577" height="33.667"/>
			<rect x="942.851" y="156.063" fill="#676767" width="33.577" height="33.744"/>
			<rect x="1089.944" y="156.063" fill="#676767" width="33.576" height="33.744"/>
			<rect x="796.741" y="307.101" fill="#676767" width="33.576" height="33.667"/>
			<rect x="942.868" y="307.023" fill="#676767" width="33.576" height="33.745"/>
			<rect x="1089.961" y="307.023" fill="#676767" width="33.577" height="33.745"/>
			<rect x="796.741" y="451.714" fill="#676767" width="33.576" height="33.667"/>
			<rect x="942.868" y="451.636" fill="#676767" width="33.576" height="33.744"/>
			<rect x="1089.961" y="451.636" fill="#676767" width="33.577" height="33.744"/>
			<rect x="796.757" y="592.827" fill="#676767" width="33.576" height="33.665"/>
			<rect x="942.884" y="592.748" fill="#676767" width="33.577" height="33.744"/>
			<rect x="1089.979" y="592.748" fill="#676767" width="33.576" height="33.744"/>
			<rect x="796.741" y="754.329" fill="#676767" width="33.576" height="33.665"/>
			<rect x="942.868" y="754.25" fill="#676767" width="33.576" height="33.744"/>
			<rect x="1089.961" y="754.25" fill="#676767" width="33.577" height="33.744"/>
		</g>
	</g>
	<g display="inline">
		<g>
			<rect x="423.139" y="1023.848" fill="#343434" width="1073.723" height="55.601"/>
			<rect x="673.836" y="5.003" fill="#343434" width="570.531" height="49.424"/>
			<rect x="724.537" y="88.451" fill="#343434" width="469.331" height="32.592"/>
			<rect x="724.57" y="121.043" fill="#343434" width="33.074" height="706.985"/>
			<rect x="1160.795" y="121.043" fill="#343434" width="33.073" height="706.985"/>
			<rect x="724.57" y="222.041" fill="#343434" width="469.218" height="50.499"/>
			<rect x="724.57" y="374.612" fill="#343434" width="469.218" height="50.499"/>
			<rect x="724.57" y="509.992" fill="#343434" width="469.218" height="50.499"/>
			<rect x="724.57" y="664.713" fill="#343434" width="469.218" height="50.498"/>
			<rect x="1077.914" y="828.028" fill="#343434" width="115.887" height="195.819"/>
			<rect x="724.57" y="828.028" fill="#343434" width="102.554" height="195.819"/>
			<rect x="724.57" y="822" fill="#343434" width="469.218" height="39.604"/>
			<rect x="868.653" y="89.775" fill="#343434" width="33.577" height="738.257"/>
			<rect x="1019.075" y="89.775" fill="#343434" width="33.576" height="738.257"/>
			<rect x="874.398" y="894.644" fill="#343434" width="68.385" height="129.204"/>
			<rect x="976.562" y="894.644" fill="#343434" width="67.153" height="129.204"/>
			<rect x="796.722" y="156.141" fill="#343434" width="33.577" height="33.667"/>
			<rect x="942.851" y="156.063" fill="#343434" width="33.577" height="33.744"/>
			<rect x="1089.944" y="156.063" fill="#343434" width="33.576" height="33.744"/>
			<rect x="796.741" y="307.101" fill="#343434" width="33.576" height="33.667"/>
			<rect x="942.868" y="307.023" fill="#343434" width="33.576" height="33.745"/>
			<rect x="1089.961" y="307.023" fill="#343434" width="33.577" height="33.745"/>
			<rect x="796.741" y="451.714" fill="#343434" width="33.576" height="33.667"/>
			<rect x="942.868" y="451.636" fill="#343434" width="33.576" height="33.744"/>
			<rect x="1089.961" y="451.636" fill="#343434" width="33.577" height="33.744"/>
			<rect x="796.757" y="592.827" fill="#343434" width="33.576" height="33.665"/>
			<rect x="942.884" y="592.748" fill="#343434" width="33.577" height="33.744"/>
			<rect x="1089.979" y="592.748" fill="#343434" width="33.576" height="33.744"/>
			<rect x="796.741" y="754.329" fill="#343434" width="33.576" height="33.665"/>
			<rect x="942.868" y="754.25" fill="#343434" width="33.576" height="33.744"/>
			<rect x="1089.961" y="754.25" fill="#343434" width="33.577" height="33.744"/>
		</g>
	</g>
</g>
<g id="Layer_4" display="none">
	<g id="Layer_2_2_" display="inline">
		<path fill="#343434" d="M1347.825,677.868h43.958v-76.562c-7.582-1.043-33.665-3.389-64.038-3.389
			c-63.376,0-106.797,39.866-106.797,113.132v67.434h-69.94v85.591h69.94v215.352h85.742V864.088h67.112l10.652-85.587h-77.784
			v-58.966C1306.694,694.802,1313.357,677.868,1347.825,677.868L1347.825,677.868z"/>
		<g>
			<g>
				<path fill="#343434" d="M1024.286,660.374c-17.424-30.998-36.342-36.703-74.85-38.866
					c-38.472-2.615-135.211-3.694-219.019-3.694c-83.969,0-180.746,1.079-219.178,3.659c-38.431,2.204-57.383,7.866-74.972,38.914
					c-17.951,30.951-27.188,84.278-27.188,178.165c0,0.083,0,0.122,0,0.122c0,0.08,0,0.122,0,0.122v0.078
					c0,93.487,9.236,147.214,27.188,177.854c17.589,31.003,36.501,36.625,74.932,39.236c38.472,2.25,135.251,3.573,219.218,3.573
					c83.811,0,180.549-1.323,219.057-3.531c38.514-2.614,57.42-8.236,74.855-39.237c18.107-30.639,27.265-84.361,27.265-177.851
					c0,0,0-0.123,0-0.206c0,0,0-0.077,0-0.121C1051.595,744.665,1042.438,691.338,1024.286,660.374z M650.025,959.145V718.201
					l200.786,120.473L650.025,959.145z"/>
			</g>
		</g>
		<g>
			<g>
				<path fill="#343434" d="M1271.393,214.729v95.81h135.525c-19.786,55.762-73.057,95.813-135.525,95.813
					c-79.234,0-143.715-64.48-143.715-143.718c0-79.237,64.48-143.715,143.715-143.715c34.348,0,67.404,12.31,93.082,34.683
					l62.945-72.243c-43.116-37.556-98.494-58.253-156.027-58.253c-132.069,0-239.525,107.452-239.525,239.525
					c0,132.076,107.456,239.525,239.525,239.525c132.074,0,239.526-107.449,239.526-239.525v-47.906L1271.393,214.729
					L1271.393,214.729z"/>
			</g>
		</g>
		<path fill="#343434" d="M602.548,512.607c232.152,0,359.105-192.33,359.105-359.104c0-5.463-0.111-10.904-0.357-16.313
			c24.643-17.818,46.061-40.053,62.958-65.36c-22.614,10.058-46.949,16.817-72.479,19.877c26.056-15.632,46.062-40.348,55.5-69.813
			c-24.388,14.457-51.391,24.96-80.143,30.633C904.1,27.997,871.307,12.654,835,12.654c-69.695,0-126.222,56.522-126.222,126.196
			c0,9.908,1.109,19.541,3.276,28.779c-104.901-5.277-197.922-55.497-260.168-131.867c-10.832,18.648-17.085,40.319-17.085,63.44
			c0,43.781,22.281,82.444,56.163,105.055c-20.706-0.635-40.155-6.321-57.158-15.781c-0.021,0.527-0.021,1.045-0.021,1.609
			c0,61.128,43.505,112.162,101.264,123.726c-10.608,2.885-21.771,4.439-33.284,4.439c-8.119,0-16.034-0.796-23.723-2.275
			c16.066,50.148,62.664,86.641,117.906,87.663c-43.199,33.857-97.617,54.026-156.761,54.026c-10.175,0-20.228-0.583-30.107-1.749
			c55.857,35.805,122.187,56.697,193.472,56.697"/>
	</g>
</g>
<g id="Layer_5" display="none">
	<g id="Layer_3_1_" display="inline">
		<g>
			<g>
				<path fill="#343434" d="M960.001,15c-210.683,0-382.082,171.399-382.082,382.079c0,261.459,341.926,645.296,356.482,661.509
					c13.673,15.229,37.548,15.202,51.196,0c14.559-16.213,356.483-400.05,356.483-661.509C1342.077,186.399,1170.679,15,960.001,15z
					 M960.001,665.216c-147.851,0-268.136-120.288-268.136-268.137c0-147.852,120.286-268.135,268.136-268.135
					c147.848,0,268.132,120.284,268.132,268.137C1228.133,544.932,1107.851,665.216,960.001,665.216z"/>
			</g>
		</g>
		<circle fill="#343434" cx="953.67" cy="388.47" r="97.06"/>
	</g>
</g>
<g id="Layer_6" display="none">
	<g display="inline">
		<path fill="#343434" d="M1259.234,566.09h126.355v302.541h-126.355V566.09z"/>
		<path fill="#343434" d="M1016.092,569.421h125.539v300.577h-125.539V569.421z"/>
		<path fill="#343434" d="M778.364,569.421h125.54v300.577h-125.54V569.421z"/>
		<path fill="#343434" d="M540.648,569.421H666.18v300.577H540.648V569.421z"/>
		<path fill="#343434" d="M1421.203,475.266v-31.385H498.801v31.385c0,17.335,14.05,31.385,31.385,31.385h859.63
			C1407.145,506.65,1421.203,492.601,1421.203,475.266z"/>
		<path fill="#343434" d="M1464.234,932.769H455.779c-17.335,0-31.385,14.049-31.385,31.384v83.693
			c0,17.335,14.05,31.386,31.385,31.386h1008.458c17.336,0,31.385-14.051,31.385-31.386v-83.693
			C1495.619,946.817,1481.57,932.769,1464.234,932.769z"/>
		<path fill="#343434" d="M455.745,381.11H1464.25c14.043,0,26.377-9.326,30.201-22.834c3.816-13.51-1.789-27.92-13.744-35.276
			L976.453,12.616c-10.086-6.213-22.811-6.213-32.909,0L439.292,323c-11.958,7.365-17.564,21.766-13.738,35.276
			C429.382,371.785,441.712,381.11,455.745,381.11z M938.666,192.557h42.674c17.334,0,31.387,14.05,31.387,31.385
			c0,17.334-14.053,31.385-31.387,31.385h-42.674c-17.335,0-31.384-14.051-31.384-31.385
			C907.282,206.606,921.331,192.557,938.666,192.557z"/>
	</g>
</g>
<g id="Layer_7">
	<g>
		<g>
			<g>
				<polygon fill="#343434" points="997.93,220.234 523.771,585.084 523.771,1073.897 904.774,1073.897 904.774,715.679 
					1107.178,715.679 1107.178,1073.897 1472.086,1073.897 1472.086,585.084 				"/>
			</g>
		</g>
		<g>
			<g>
				<polygon fill="#343434" points="1431.448,343.792 1431.448,124.471 1256.214,124.471 1256.214,208.987 997.93,10.293 
					393.07,475.602 476.567,584.139 997.93,182.961 1519.294,584.139 1602.789,475.604 				"/>
			</g>
		</g>
	</g>
</g>
<g id="Layer_3" display="none">
	<g id="Layer_2_1_" display="inline">
		<g>
			<path fill="#343434" d="M1754.412,941.104l-14.828,60.611c-44.486,17.558-80.02,30.921-106.482,40.11
				c-26.49,9.219-57.266,13.802-92.34,13.802c-53.854,0-95.742-13.192-125.615-39.395c-29.874-26.31-44.818-59.646-44.818-100.089
				c0-15.656,1.082-31.759,3.338-48.167c2.274-16.429,5.887-34.925,10.833-55.603l55.596-196.768
				c4.946-18.848,9.149-36.695,12.517-53.582c3.415-16.778,5.061-32.215,5.061-46.109c0-25.129-5.203-42.707-15.561-52.587
				c-10.358-9.854-30.125-14.857-59.465-14.857c-14.374,0-29.145,2.301-44.201,6.752c-15.121,4.471-28.048,8.791-38.9,12.803
				l14.865-60.666c36.42-14.828,71.232-27.526,104.532-38.066c33.302-10.567,64.764-15.856,94.522-15.856
				c53.48,0,94.748,12.929,123.732,38.782c28.979,25.869,43.471,59.409,43.471,100.733c0,8.55-0.953,23.617-2.994,45.149
				c-1.998,21.585-5.717,41.356-11.139,59.344l-55.354,195.985c-4.537,15.737-8.617,33.735-12.168,53.986
				c-3.658,20.115-5.41,35.487-5.41,45.797c0,26.021,5.803,43.791,17.434,53.236c11.723,9.441,31.904,14.14,60.572,14.14
				c13.455,0,28.77-2.389,45.789-7.077C1734.359,948.827,1746.734,944.707,1754.412,941.104z M1768.455,118.307
				c0,34.145-12.873,63.308-38.736,87.284c-25.795,24.066-56.877,36.11-93.236,36.11c-36.479,0-67.635-12.044-93.727-36.11
				c-26.041-23.985-39.094-53.139-39.094-87.284c0-34.079,13.053-63.289,39.094-87.571c26.041-24.246,57.256-36.363,93.727-36.363
				c36.35,0,67.447,12.147,93.236,36.363C1755.602,55.02,1768.455,84.239,1768.455,118.307z"/>
		</g>
	</g>
</g>
</svg>
